<?xml version="1.0" encoding="utf-8"?><svg xmlns="http://www.w3.org/2000/svg" xmlns:xlink="http://www.w3.org/1999/xlink"><symbol viewBox="0 0 142 43"  id="stas" xmlns="http://www.w3.org/2000/svg">
<path  d="M19.7388 32.75L17.9135 35.1308L17.9261 35.1405L17.9388 35.15L19.7388 32.75ZM14.5708 30.4531L13.6386 33.3046L13.6469 33.3073L13.6551 33.31L14.5708 30.4531ZM8.66113 28.0605L7.23503 30.6999L7.23883 30.702L8.66113 28.0605ZM4.30664 14.3989L1.87253 12.6453L1.86903 12.6502L4.30664 14.3989ZM8.87646 10.9297L7.72419 8.15979L7.71628 8.1631L8.87646 10.9297ZM22.2271 11.0493L20.9572 13.7673L20.9663 13.7716L20.9755 13.7758L22.2271 11.0493ZM26.749 14.8535L24.2343 16.4893L24.2398 16.4979L24.2454 16.5064L26.749 14.8535ZM28.376 20.4521V23.4521H31.376V20.4521H28.376ZM21.1982 20.4521H18.1982V23.4521H21.1982V20.4521ZM19.6909 16.7437L17.6978 18.9859L17.7078 18.9948L17.7179 19.0036L19.6909 16.7437ZM11.3647 16.5283L13.171 18.9236L13.1834 18.9142L13.1958 18.9047L11.3647 16.5283ZM11.604 22.2944L9.92378 24.7798L9.93183 24.7852L9.9399 24.7906L11.604 22.2944ZM16.6523 24.4478L15.7846 27.3195L15.7882 27.3206L16.6523 24.4478ZM24.9546 42.9185L26.7519 45.3205L26.7626 45.3124L24.9546 42.9185ZM8.42188 44.019L7.19243 46.7555L7.2007 46.7593L7.209 46.7629L8.42188 44.019ZM3.37354 39.9756L0.884565 41.6504L0.889929 41.6584L0.895343 41.6663L3.37354 39.9756ZM1.65088 34.042V31.042H-1.34912V34.042H1.65088ZM8.85254 34.042H11.8525V31.042H8.85254V34.042ZM19.7388 38.7793L21.4863 41.2177L21.4996 41.2082L21.5129 41.1985L19.7388 38.7793ZM24.1743 35.8604C24.1743 33.7043 23.3595 31.7155 21.5388 30.35L17.9388 35.15C18.0321 35.22 18.1743 35.3048 18.1743 35.8604H24.1743ZM21.5641 30.3692C20.1655 29.297 18.0107 28.4053 15.4865 27.5963L13.6551 33.31C16.1074 34.096 17.3979 34.7356 17.9135 35.1308L21.5641 30.3692ZM15.503 27.6016C13.0979 26.8153 11.3146 26.0821 10.0834 25.4191L7.23883 30.702C8.91065 31.6022 11.0672 32.464 13.6386 33.3046L15.503 27.6016ZM10.0872 25.4212C6.82397 23.658 5.72754 21.6592 5.72754 19.4233H-0.272461C-0.272461 24.429 2.58684 28.1884 7.23503 30.6999L10.0872 25.4212ZM5.72754 19.4233C5.72754 18.1404 6.07332 17.0829 6.74426 16.1476L1.86903 12.6502C0.434495 14.6499 -0.272461 16.942 -0.272461 19.4233H5.72754ZM6.74075 16.1525C7.4339 15.1904 8.47921 14.3494 10.0366 13.6963L7.71628 8.1631C5.31799 9.16884 3.31675 10.6407 1.87253 12.6453L6.74075 16.1525ZM10.0287 13.6996C11.6083 13.0425 13.442 12.6855 15.5757 12.6855V6.68555C12.7647 6.68555 10.1323 7.15805 7.72419 8.1598L10.0287 13.6996ZM15.5757 12.6855C17.6944 12.6855 19.4671 13.0711 20.9572 13.7673L23.4969 8.33134C21.0951 7.20917 18.4335 6.68555 15.5757 6.68555V12.6855ZM20.9755 13.7758C22.4552 14.455 23.5034 15.3659 24.2343 16.4893L29.2638 13.2177C27.8572 11.0554 25.8908 9.43008 23.4786 8.32283L20.9755 13.7758ZM24.2454 16.5064C24.986 17.6281 25.376 18.9124 25.376 20.4521H31.376C31.376 17.8129 30.6813 15.3647 29.2526 13.2007L24.2454 16.5064ZM28.376 17.4521H21.1982V23.4521H28.376V17.4521ZM24.1982 20.4521C24.1982 18.1766 23.4494 16.0424 21.6639 14.4837L17.7179 19.0036C17.9422 19.1994 18.1982 19.5376 18.1982 20.4521H24.1982ZM21.684 14.5014C19.9617 12.9705 17.7476 12.4038 15.4561 12.4038V18.4038C16.8013 18.4038 17.4104 18.7304 17.6978 18.9859L21.684 14.5014ZM15.4561 12.4038C13.3148 12.4038 11.2145 12.8569 9.53373 14.1519L13.1958 18.9047C13.4609 18.7004 14.0882 18.4038 15.4561 18.4038V12.4038ZM9.55847 14.133C7.83844 15.4301 6.90527 17.2877 6.90527 19.4473H12.9053C12.9053 19.253 12.9413 19.1742 12.9534 19.15C12.9658 19.1252 13.0094 19.0455 13.171 18.9236L9.55847 14.133ZM6.90527 19.4473C6.90527 21.7907 8.16148 23.5883 9.92378 24.7798L13.2842 19.8091C12.9983 19.6158 12.9169 19.4892 12.9062 19.4713C12.901 19.4625 12.9037 19.4653 12.9062 19.4748C12.9087 19.4838 12.9053 19.4777 12.9053 19.4473H6.90527ZM9.9399 24.7906C11.4442 25.7934 13.4487 26.6137 15.7846 27.3195L17.5201 21.576C15.4218 20.942 14.0607 20.3267 13.2681 19.7983L9.9399 24.7906ZM15.7882 27.3206C19.6702 28.4882 22.1155 29.8338 23.4831 31.1663L27.6703 26.8689C25.3054 24.5646 21.8011 22.8636 17.5164 21.5749L15.7882 27.3206ZM23.4831 31.1663C24.7439 32.3947 25.376 33.8732 25.376 35.8125H31.376C31.376 32.3286 30.1419 29.2772 27.6703 26.8689L23.4831 31.1663ZM25.376 35.8125C25.376 37.9464 24.6302 39.404 23.1466 40.5245L26.7626 45.3124C29.8409 42.9876 31.376 39.7079 31.376 35.8125H25.376ZM23.1573 40.5164C21.5515 41.718 19.1823 42.4785 15.7432 42.4785V48.4785C20.0241 48.4785 23.7958 47.5323 26.7519 45.3205L23.1573 40.5164ZM15.7432 42.4785C13.4336 42.4785 11.4126 42.061 9.63475 41.2752L7.209 46.7629C9.83347 47.923 12.6933 48.4785 15.7432 48.4785V42.4785ZM9.65132 41.2825C7.86884 40.4817 6.65508 39.4624 5.85173 38.2849L0.895343 41.6663C2.42077 43.9022 4.57257 45.5785 7.19243 46.7555L9.65132 41.2825ZM5.86251 38.3008C5.07821 37.1352 4.65088 35.7525 4.65088 34.042H-1.34912C-1.34912 36.8296 -0.628015 39.4025 0.884565 41.6504L5.86251 38.3008ZM1.65088 37.042H8.85254V31.042H1.65088V37.042ZM5.85254 34.042C5.85254 36.5807 6.63645 38.9824 8.64993 40.6673C10.561 42.2665 13.1012 42.8081 15.7432 42.8081V36.8081C13.7914 36.8081 12.8862 36.3887 12.5005 36.0658C12.2171 35.8287 11.8525 35.3473 11.8525 34.042H5.85254ZM15.7432 42.8081C17.8068 42.8081 19.8372 42.3997 21.4863 41.2177L17.9912 36.3408C17.7263 36.5307 17.093 36.8081 15.7432 36.8081V42.8081ZM21.5129 41.1985C23.2832 39.9002 24.1743 38.0059 24.1743 35.8604H18.1743C18.1743 36.0912 18.1321 36.1815 18.1234 36.1992C18.1171 36.212 18.091 36.2674 17.9647 36.3601L21.5129 41.1985ZM65.3595 15.978V18.978H68.3595V15.978H65.3595ZM54.6886 15.978V12.978H51.6886V15.978H54.6886ZM54.6886 45V48H57.6886V45H54.6886ZM47.5109 45H44.5109V48H47.5109V45ZM47.5109 15.978H50.5109V12.978H47.5109V15.978ZM36.9835 15.978H33.9835V18.978H36.9835V15.978ZM36.9835 10.1641V7.16406H33.9835V10.1641H36.9835ZM65.3595 10.1641H68.3595V7.16406H65.3595V10.1641ZM65.3595 12.978H54.6886V18.978H65.3595V12.978ZM51.6886 15.978V45H57.6886V15.978H51.6886ZM54.6886 42H47.5109V48H54.6886V42ZM50.5109 45V15.978H44.5109V45H50.5109ZM47.5109 12.978H36.9835V18.978H47.5109V12.978ZM39.9835 15.978V10.1641H33.9835V15.978H39.9835ZM36.9835 13.1641H65.3595V7.16406H36.9835V13.1641ZM62.3595 10.1641V15.978H68.3595V10.1641H62.3595ZM92.1506 37.8223L94.9938 36.8651L94.3061 34.8223H92.1506V37.8223ZM79.5657 37.8223V34.8223H77.4034L76.7196 36.8736L79.5657 37.8223ZM77.1731 45V48H79.3354L80.0191 45.9487L77.1731 45ZM69.5408 45L66.7292 43.9534L65.2229 48H69.5408V45ZM82.5085 10.1641V7.16406H80.4242L79.697 9.11747L82.5085 10.1641ZM89.1599 10.1641L91.9695 9.11238L91.2402 7.16406H89.1599V10.1641ZM102.199 45V48H106.526L105.009 43.9483L102.199 45ZM94.5671 45L91.7239 45.9572L92.4117 48H94.5671V45ZM81.5037 32.0083L78.6566 31.0628L77.3462 35.0083H81.5037V32.0083ZM90.2126 32.0083V35.0083H94.3846L93.0566 31.0534L90.2126 32.0083ZM85.8342 18.9688L88.6782 18.0138L85.8186 9.49754L82.9871 18.0232L85.8342 18.9688ZM92.1506 34.8223H79.5657V40.8223H92.1506V34.8223ZM76.7196 36.8736L74.327 44.0513L80.0191 45.9487L82.4117 38.7709L76.7196 36.8736ZM77.1731 42H69.5408V48H77.1731V42ZM72.3523 46.0466L85.3201 11.2107L79.697 9.11747L66.7292 43.9534L72.3523 46.0466ZM82.5085 13.1641H89.1599V7.16406H82.5085V13.1641ZM86.3503 11.2157L99.3898 46.0517L105.009 43.9483L91.9695 9.11238L86.3503 11.2157ZM102.199 42H94.5671V48H102.199V42ZM97.4103 44.0428L94.9938 36.8651L89.3074 38.7795L91.7239 45.9572L97.4103 44.0428ZM81.5037 35.0083H90.2126V29.0083H81.5037V35.0083ZM93.0566 31.0534L88.6782 18.0138L82.9903 19.9237L87.3687 32.9632L93.0566 31.0534ZM82.9871 18.0232L78.6566 31.0628L84.3507 32.9538L88.6813 19.9143L82.9871 18.0232ZM127.962 32.75L126.136 35.1308L126.149 35.1405L126.162 35.15L127.962 32.75ZM122.794 30.4531L121.862 33.3046L121.87 33.3073L121.878 33.31L122.794 30.4531ZM116.884 28.0605L115.458 30.6999L115.462 30.702L116.884 28.0605ZM112.53 14.3989L110.096 12.6453L110.092 12.6502L112.53 14.3989ZM117.099 10.9297L115.947 8.15979L115.939 8.1631L117.099 10.9297ZM130.45 11.0493L129.18 13.7673L129.189 13.7716L129.199 13.7758L130.45 11.0493ZM134.972 14.8535L132.457 16.4893L132.463 16.4979L132.468 16.5064L134.972 14.8535ZM136.599 20.4521V23.4521H139.599V20.4521H136.599ZM129.421 20.4521H126.421V23.4521H129.421V20.4521ZM127.914 16.7437L125.921 18.9859L125.931 18.9948L125.941 19.0036L127.914 16.7437ZM119.588 16.5283L121.394 18.9236L121.406 18.9142L121.419 18.9047L119.588 16.5283ZM119.827 22.2944L118.147 24.7798L118.155 24.7852L118.163 24.7906L119.827 22.2944ZM124.875 24.4478L124.008 27.3195L124.011 27.3206L124.875 24.4478ZM133.178 42.9185L134.975 45.3205L134.986 45.3124L133.178 42.9185ZM116.645 44.019L115.415 46.7555L115.424 46.7593L115.432 46.7629L116.645 44.019ZM111.597 39.9756L109.108 41.6504L109.113 41.6584L109.118 41.6663L111.597 39.9756ZM109.874 34.042V31.042H106.874V34.042H109.874ZM117.076 34.042H120.076V31.042H117.076V34.042ZM127.962 38.7793L129.709 41.2177L129.723 41.2082L129.736 41.1985L127.962 38.7793ZM132.397 35.8604C132.397 33.7043 131.582 31.7155 129.762 30.35L126.162 35.15C126.255 35.22 126.397 35.3048 126.397 35.8604H132.397ZM129.787 30.3692C128.389 29.297 126.234 28.4053 123.709 27.5963L121.878 33.31C124.33 34.096 125.621 34.7356 126.136 35.1308L129.787 30.3692ZM123.726 27.6016C121.321 26.8153 119.538 26.0821 118.306 25.4191L115.462 30.702C117.134 31.6022 119.29 32.464 121.862 33.3046L123.726 27.6016ZM118.31 25.4212C115.047 23.658 113.951 21.6592 113.951 19.4233H107.951C107.951 24.429 110.81 28.1884 115.458 30.6999L118.31 25.4212ZM113.951 19.4233C113.951 18.1404 114.296 17.0829 114.967 16.1476L110.092 12.6502C108.658 14.6499 107.951 16.942 107.951 19.4233H113.951ZM114.964 16.1525C115.657 15.1904 116.702 14.3494 118.26 13.6963L115.939 8.1631C113.541 9.16884 111.54 10.6407 110.096 12.6453L114.964 16.1525ZM118.252 13.6996C119.831 13.0425 121.665 12.6855 123.799 12.6855V6.68555C120.988 6.68555 118.355 7.15805 115.947 8.1598L118.252 13.6996ZM123.799 12.6855C125.917 12.6855 127.69 13.0711 129.18 13.7673L131.72 8.33134C129.318 7.20917 126.657 6.68555 123.799 6.68555V12.6855ZM129.199 13.7758C130.678 14.455 131.726 15.3659 132.457 16.4893L137.487 13.2177C136.08 11.0554 134.114 9.43008 131.702 8.32283L129.199 13.7758ZM132.468 16.5064C133.209 17.6281 133.599 18.9124 133.599 20.4521H139.599C139.599 17.8129 138.904 15.3647 137.476 13.2007L132.468 16.5064ZM136.599 17.4521H129.421V23.4521H136.599V17.4521ZM132.421 20.4521C132.421 18.1766 131.672 16.0424 129.887 14.4837L125.941 19.0036C126.165 19.1994 126.421 19.5376 126.421 20.4521H132.421ZM129.907 14.5014C128.185 12.9705 125.971 12.4038 123.679 12.4038V18.4038C125.024 18.4038 125.633 18.7304 125.921 18.9859L129.907 14.5014ZM123.679 12.4038C121.538 12.4038 119.438 12.8569 117.757 14.1519L121.419 18.9047C121.684 18.7004 122.311 18.4038 123.679 18.4038V12.4038ZM117.781 14.133C116.061 15.4301 115.128 17.2877 115.128 19.4473H121.128C121.128 19.253 121.164 19.1742 121.176 19.15C121.189 19.1252 121.232 19.0455 121.394 18.9236L117.781 14.133ZM115.128 19.4473C115.128 21.7907 116.384 23.5883 118.147 24.7798L121.507 19.8091C121.221 19.6158 121.14 19.4892 121.129 19.4713C121.124 19.4625 121.127 19.4653 121.129 19.4748C121.132 19.4838 121.128 19.4777 121.128 19.4473H115.128ZM118.163 24.7906C119.667 25.7934 121.672 26.6137 124.008 27.3195L125.743 21.576C123.645 20.942 122.284 20.3267 121.491 19.7983L118.163 24.7906ZM124.011 27.3206C127.893 28.4882 130.339 29.8338 131.706 31.1663L135.893 26.8689C133.528 24.5646 130.024 22.8636 125.739 21.5749L124.011 27.3206ZM131.706 31.1663C132.967 32.3947 133.599 33.8732 133.599 35.8125H139.599C139.599 32.3286 138.365 29.2772 135.893 26.8689L131.706 31.1663ZM133.599 35.8125C133.599 37.9464 132.853 39.404 131.37 40.5245L134.986 45.3124C138.064 42.9876 139.599 39.7079 139.599 35.8125H133.599ZM131.38 40.5164C129.774 41.718 127.405 42.4785 123.966 42.4785V48.4785C128.247 48.4785 132.019 47.5323 134.975 45.3205L131.38 40.5164ZM123.966 42.4785C121.657 42.4785 119.636 42.061 117.858 41.2752L115.432 46.7629C118.056 47.923 120.916 48.4785 123.966 48.4785V42.4785ZM117.874 41.2825C116.092 40.4817 114.878 39.4624 114.075 38.2849L109.118 41.6663C110.644 43.9022 112.796 45.5785 115.415 46.7555L117.874 41.2825ZM114.086 38.3008C113.301 37.1352 112.874 35.7525 112.874 34.042H106.874C106.874 36.8296 107.595 39.4025 109.108 41.6504L114.086 38.3008ZM109.874 37.042H117.076V31.042H109.874V37.042ZM114.076 34.042C114.076 36.5807 114.859 38.9824 116.873 40.6673C118.784 42.2665 121.324 42.8081 123.966 42.8081V36.8081C122.014 36.8081 121.109 36.3887 120.723 36.0658C120.44 35.8287 120.076 35.3473 120.076 34.042H114.076ZM123.966 42.8081C126.03 42.8081 128.06 42.3997 129.709 41.2177L126.214 36.3408C125.949 36.5307 125.316 36.8081 123.966 36.8081V42.8081ZM129.736 41.1985C131.506 39.9002 132.397 38.0059 132.397 35.8604H126.397C126.397 36.0912 126.355 36.1815 126.346 36.1992C126.34 36.212 126.314 36.2674 126.188 36.3601L129.736 41.1985Z" transform="translate(2 -6)" fill="#7B00ED"/>
</symbol></svg>